<svg width="103" height="38" viewBox="0 0 103 38" fill="none" xmlns="http://www.w3.org/2000/svg">
<path d="M38.5352 1.78125V16H36.6504V1.78125H38.5352ZM44.4922 8.17773V9.7207H38.125V8.17773H44.4922ZM45.459 1.78125V3.32422H38.125V1.78125H45.459ZM53.0816 13.5586V5.43359H54.898V16H53.1695L53.0816 13.5586ZM53.4234 11.332L54.1754 11.3125C54.1754 12.0156 54.1005 12.6667 53.9508 13.2656C53.8076 13.8581 53.5732 14.3724 53.2477 14.8086C52.9221 15.2448 52.4957 15.5866 51.9684 15.834C51.441 16.0749 50.7997 16.1953 50.0445 16.1953C49.5302 16.1953 49.0582 16.1204 48.6285 15.9707C48.2053 15.821 47.8408 15.5898 47.5348 15.2773C47.2288 14.9648 46.9911 14.5579 46.8219 14.0566C46.6591 13.5553 46.5777 12.9531 46.5777 12.25V5.43359H48.3844V12.2695C48.3844 12.7448 48.4365 13.1387 48.5406 13.4512C48.6513 13.7572 48.7978 14.0013 48.9801 14.1836C49.1689 14.3594 49.3772 14.4831 49.6051 14.5547C49.8395 14.6263 50.0803 14.6621 50.3277 14.6621C51.096 14.6621 51.7047 14.5156 52.1539 14.2227C52.6031 13.9232 52.9254 13.5228 53.1207 13.0215C53.3225 12.5137 53.4234 11.9505 53.4234 11.332ZM64.923 14.5156V16H57.2375V14.5156H64.923ZM64.6398 6.71289L57.6477 16H56.5441V14.6719L63.4875 5.43359H64.6398V6.71289ZM63.8391 5.43359V6.92773H56.6223V5.43359H63.8391ZM74.2449 14.5156V16H66.5594V14.5156H74.2449ZM73.9617 6.71289L66.9695 16H65.866V14.6719L72.8094 5.43359H73.9617V6.71289ZM73.1609 5.43359V6.92773H65.9441V5.43359H73.1609ZM78.6645 14.9062L81.6039 5.43359H83.5375L79.2992 17.6309C79.2016 17.8913 79.0714 18.1712 78.9086 18.4707C78.7523 18.7767 78.5505 19.0664 78.3031 19.3398C78.0557 19.6133 77.7562 19.8346 77.4047 20.0039C77.0596 20.1797 76.6462 20.2676 76.1645 20.2676C76.0212 20.2676 75.8389 20.248 75.6176 20.209C75.3962 20.1699 75.24 20.1374 75.1488 20.1113L75.1391 18.6465C75.1911 18.653 75.2725 18.6595 75.3832 18.666C75.5004 18.679 75.5818 18.6855 75.6273 18.6855C76.0375 18.6855 76.3858 18.6302 76.6723 18.5195C76.9587 18.4154 77.1996 18.2363 77.3949 17.9824C77.5967 17.735 77.7693 17.3932 77.9125 16.957L78.6645 14.9062ZM76.5062 5.43359L79.2504 13.6367L79.7191 15.541L78.4203 16.2051L74.5336 5.43359H76.5062ZM45.2344 30.4785H47.1094C47.0117 31.377 46.7546 32.181 46.3379 32.8906C45.9212 33.6003 45.332 34.1634 44.5703 34.5801C43.8086 34.9902 42.8581 35.1953 41.7188 35.1953C40.8854 35.1953 40.127 35.0391 39.4434 34.7266C38.7663 34.4141 38.1836 33.9714 37.6953 33.3984C37.207 32.819 36.8294 32.1257 36.5625 31.3184C36.3021 30.5046 36.1719 29.5996 36.1719 28.6035V27.1875C36.1719 26.1914 36.3021 25.2897 36.5625 24.4824C36.8294 23.6686 37.2103 22.972 37.7051 22.3926C38.2064 21.8132 38.8086 21.3672 39.5117 21.0547C40.2148 20.7422 41.0059 20.5859 41.8848 20.5859C42.959 20.5859 43.8672 20.7878 44.6094 21.1914C45.3516 21.5951 45.9277 22.1549 46.3379 22.8711C46.7546 23.5807 47.0117 24.4043 47.1094 25.3418H45.2344C45.1432 24.6777 44.974 24.1081 44.7266 23.6328C44.4792 23.151 44.1276 22.7799 43.6719 22.5195C43.2161 22.2591 42.6204 22.1289 41.8848 22.1289C41.2533 22.1289 40.6966 22.2493 40.2148 22.4902C39.7396 22.7311 39.3392 23.0729 39.0137 23.5156C38.6947 23.9583 38.4538 24.4889 38.291 25.1074C38.1283 25.7259 38.0469 26.4128 38.0469 27.168V28.6035C38.0469 29.3001 38.1185 29.9544 38.2617 30.5664C38.4115 31.1784 38.6361 31.7155 38.9355 32.1777C39.235 32.64 39.6159 33.0046 40.0781 33.2715C40.5404 33.5319 41.0872 33.6621 41.7188 33.6621C42.5195 33.6621 43.1576 33.5352 43.6328 33.2812C44.1081 33.0273 44.4661 32.6628 44.707 32.1875C44.9544 31.7122 45.1302 31.1426 45.2344 30.4785ZM48.3258 29.834V29.6094C48.3258 28.8477 48.4365 28.1413 48.6578 27.4902C48.8792 26.8327 49.1982 26.263 49.6148 25.7812C50.0315 25.293 50.5361 24.9154 51.1285 24.6484C51.721 24.375 52.385 24.2383 53.1207 24.2383C53.8629 24.2383 54.5302 24.375 55.1227 24.6484C55.7216 24.9154 56.2294 25.293 56.6461 25.7812C57.0693 26.263 57.3915 26.8327 57.6129 27.4902C57.8342 28.1413 57.9449 28.8477 57.9449 29.6094V29.834C57.9449 30.5957 57.8342 31.3021 57.6129 31.9531C57.3915 32.6042 57.0693 33.1738 56.6461 33.6621C56.2294 34.1439 55.7249 34.5215 55.1324 34.7949C54.5465 35.0618 53.8824 35.1953 53.1402 35.1953C52.398 35.1953 51.7307 35.0618 51.1383 34.7949C50.5458 34.5215 50.038 34.1439 49.6148 33.6621C49.1982 33.1738 48.8792 32.6042 48.6578 31.9531C48.4365 31.3021 48.3258 30.5957 48.3258 29.834ZM50.1324 29.6094V29.834C50.1324 30.3613 50.1943 30.8594 50.318 31.3281C50.4417 31.7904 50.6272 32.2005 50.8746 32.5586C51.1285 32.9167 51.4443 33.1999 51.8219 33.4082C52.1995 33.61 52.6389 33.7109 53.1402 33.7109C53.635 33.7109 54.068 33.61 54.4391 33.4082C54.8167 33.1999 55.1292 32.9167 55.3766 32.5586C55.624 32.2005 55.8095 31.7904 55.9332 31.3281C56.0634 30.8594 56.1285 30.3613 56.1285 29.834V29.6094C56.1285 29.0885 56.0634 28.597 55.9332 28.1348C55.8095 27.666 55.6207 27.2526 55.3668 26.8945C55.1194 26.5299 54.8069 26.2435 54.4293 26.0352C54.0582 25.8268 53.622 25.7227 53.1207 25.7227C52.6259 25.7227 52.1897 25.8268 51.8121 26.0352C51.441 26.2435 51.1285 26.5299 50.8746 26.8945C50.6272 27.2526 50.4417 27.666 50.318 28.1348C50.1943 28.597 50.1324 29.0885 50.1324 29.6094ZM62.3059 35H60.4992V23.3203C60.4992 22.5586 60.6359 21.9173 60.9094 21.3965C61.1893 20.8691 61.5897 20.472 62.1105 20.2051C62.6314 19.9316 63.2499 19.7949 63.966 19.7949C64.1743 19.7949 64.3827 19.8079 64.591 19.834C64.8059 19.86 65.0142 19.8991 65.216 19.9512L65.1184 21.4258C64.9816 21.3932 64.8254 21.3704 64.6496 21.3574C64.4803 21.3444 64.3111 21.3379 64.1418 21.3379C63.7577 21.3379 63.4257 21.416 63.1457 21.5723C62.8723 21.722 62.6639 21.9434 62.5207 22.2363C62.3775 22.5293 62.3059 22.8906 62.3059 23.3203V35ZM64.552 24.4336V25.8203H58.8293V24.4336H64.552ZM68.659 35H66.8523V23.3203C66.8523 22.5586 66.9891 21.9173 67.2625 21.3965C67.5424 20.8691 67.9428 20.472 68.4637 20.2051C68.9845 19.9316 69.603 19.7949 70.3191 19.7949C70.5275 19.7949 70.7358 19.8079 70.9441 19.834C71.159 19.86 71.3673 19.8991 71.5691 19.9512L71.4715 21.4258C71.3348 21.3932 71.1785 21.3704 71.0027 21.3574C70.8335 21.3444 70.6642 21.3379 70.4949 21.3379C70.1108 21.3379 69.7788 21.416 69.4988 21.5723C69.2254 21.722 69.0171 21.9434 68.8738 22.2363C68.7306 22.5293 68.659 22.8906 68.659 23.3203V35ZM70.9051 24.4336V25.8203H65.1824V24.4336H70.9051ZM76.4672 35.1953C75.7315 35.1953 75.0642 35.0716 74.4652 34.8242C73.8728 34.5703 73.3617 34.2155 72.932 33.7598C72.5089 33.304 72.1833 32.7637 71.9555 32.1387C71.7276 31.5137 71.6137 30.8301 71.6137 30.0879V29.6777C71.6137 28.8184 71.7406 28.0534 71.9945 27.3828C72.2484 26.7057 72.5935 26.1328 73.0297 25.6641C73.4659 25.1953 73.9607 24.8405 74.5141 24.5996C75.0674 24.3587 75.6404 24.2383 76.2328 24.2383C76.988 24.2383 77.6391 24.3685 78.1859 24.6289C78.7393 24.8893 79.1918 25.2539 79.5434 25.7227C79.8949 26.1849 80.1553 26.7318 80.3246 27.3633C80.4939 27.9883 80.5785 28.6719 80.5785 29.4141V30.2246H72.6879V28.75H78.7719V28.6133C78.7458 28.1445 78.6482 27.6888 78.4789 27.2461C78.3161 26.8034 78.0557 26.4388 77.6977 26.1523C77.3396 25.8659 76.8513 25.7227 76.2328 25.7227C75.8227 25.7227 75.4451 25.8105 75.1 25.9863C74.7549 26.1556 74.4587 26.4095 74.2113 26.748C73.9639 27.0866 73.7719 27.5 73.6352 27.9883C73.4984 28.4766 73.4301 29.0397 73.4301 29.6777V30.0879C73.4301 30.5892 73.4984 31.0612 73.6352 31.5039C73.7784 31.9401 73.9835 32.3242 74.2504 32.6562C74.5238 32.9883 74.8526 33.2487 75.2367 33.4375C75.6273 33.6263 76.0701 33.7207 76.5648 33.7207C77.2029 33.7207 77.7432 33.5905 78.1859 33.3301C78.6286 33.0697 79.016 32.7214 79.348 32.2852L80.4418 33.1543C80.2139 33.4993 79.9242 33.8281 79.5727 34.1406C79.2211 34.4531 78.7881 34.707 78.2738 34.9023C77.766 35.0977 77.1638 35.1953 76.4672 35.1953ZM86.4727 35.1953C85.737 35.1953 85.0697 35.0716 84.4707 34.8242C83.8783 34.5703 83.3672 34.2155 82.9375 33.7598C82.5143 33.304 82.1888 32.7637 81.9609 32.1387C81.7331 31.5137 81.6191 30.8301 81.6191 30.0879V29.6777C81.6191 28.8184 81.7461 28.0534 82 27.3828C82.2539 26.7057 82.599 26.1328 83.0352 25.6641C83.4714 25.1953 83.9661 24.8405 84.5195 24.5996C85.0729 24.3587 85.6458 24.2383 86.2383 24.2383C86.9935 24.2383 87.6445 24.3685 88.1914 24.6289C88.7448 24.8893 89.1973 25.2539 89.5488 25.7227C89.9004 26.1849 90.1608 26.7318 90.3301 27.3633C90.4993 27.9883 90.584 28.6719 90.584 29.4141V30.2246H82.6934V28.75H88.7773V28.6133C88.7513 28.1445 88.6536 27.6888 88.4844 27.2461C88.3216 26.8034 88.0612 26.4388 87.7031 26.1523C87.3451 25.8659 86.8568 25.7227 86.2383 25.7227C85.8281 25.7227 85.4505 25.8105 85.1055 25.9863C84.7604 26.1556 84.4642 26.4095 84.2168 26.748C83.9694 27.0866 83.7773 27.5 83.6406 27.9883C83.5039 28.4766 83.4355 29.0397 83.4355 29.6777V30.0879C83.4355 30.5892 83.5039 31.0612 83.6406 31.5039C83.7839 31.9401 83.9889 32.3242 84.2559 32.6562C84.5293 32.9883 84.8581 33.2487 85.2422 33.4375C85.6328 33.6263 86.0755 33.7207 86.5703 33.7207C87.2083 33.7207 87.7487 33.5905 88.1914 33.3301C88.6341 33.0697 89.0215 32.7214 89.3535 32.2852L90.4473 33.1543C90.2194 33.4993 89.9297 33.8281 89.5781 34.1406C89.2266 34.4531 88.7936 34.707 88.2793 34.9023C87.7715 35.0977 87.1693 35.1953 86.4727 35.1953Z" fill="#FBAF79"/>
<path d="M12.4904 2.48651C12.0084 4.80411 11.4151 8.50831 11.2097 10.5574C10.7813 13.5703 10.9512 16.1069 11.3126 18.5743C11.4667 19.6263 11.6563 20.6696 11.8484 21.7268C11.881 21.9063 11.9137 22.0862 11.9463 22.2665C12.1715 23.513 12.3938 24.79 12.5656 26.1562C12.7557 27.6686 12.6557 29.3151 12.4473 31.0148C12.3433 31.8631 12.2132 32.7182 12.0808 33.5726C12.0667 33.6636 12.0525 33.7547 12.0384 33.8458C11.9441 34.4528 11.8499 35.0593 11.7653 35.6576C8.73657 35.3576 5.98463 33.5352 3.9475 30.688C1.81215 27.7035 0.48502 23.6184 0.48502 19.0958C0.48502 14.4682 1.87407 10.2979 4.09624 7.29578C6.28168 4.34332 9.24946 2.54526 12.4904 2.48651Z" fill="#FBAF79" stroke="#FBAF79" stroke-width="0.97004"/>
<path d="M16.2359 10.6519L16.2347 10.6612C15.6919 14.828 16.2063 18.0306 16.7763 21.5793C16.9967 22.9514 17.2253 24.3752 17.4045 25.9265L16.2359 10.6519ZM16.2359 10.6519L16.2368 10.6425M16.2359 10.6519L16.2368 10.6425M16.2368 10.6425C16.4226 8.60336 16.9979 4.83341 17.4371 2.57076M16.2368 10.6425L17.4371 2.57076M17.4371 2.57076C20.1519 2.86044 22.6385 4.64746 24.4907 7.47444C26.4348 10.4416 27.6461 14.5121 27.6461 19.0221C27.6461 23.628 26.3827 27.7764 24.3661 30.7593C22.3732 33.7073 19.6802 35.475 16.7647 35.5193M17.4371 2.57076L16.7647 35.5193M16.7647 35.5193C16.8364 34.8966 16.919 34.2613 17.0029 33.6161L17.0106 33.5569C17.1203 32.7125 17.2317 31.852 17.321 30.9939C17.4992 29.2801 17.5922 27.5507 17.4045 25.9266L16.7647 35.5193Z" fill="#FBAF79" stroke="#FBAF79" stroke-width="0.97004"/>
</svg>
